solid mast
facet normal -0.9999999997242786 -1.5523870674808483e-05 1.7619660265392872e-05
  outer loop
    vertex 1.0004073905343196 12.738815999976715 7.354747543410629
    vertex 1.0004290286707784 -0.9247699999890141 4.918768150388184
    vertex 1.0004290286707784 -0.9247699999890141 7.354725905274172
  endloop
endfacet
facet normal -0.9999999997242786 -1.5523870674808483e-05 1.7619660265392872e-05
  outer loop
    vertex 1.0004290286707784 -0.9247699999890141 4.918768150388184
    vertex 1.0004073905343196 12.738815999976715 7.354747543410629
    vertex 1.0001204846040295 12.741583647945824 4.918009270676629
  endloop
endfacet
facet normal 1.0 0.0 0.0
  outer loop
    vertex 87.80056769760928 -9.24993290428654 1.4810749919558848
    vertex 87.80042867947589 21.25 5.0
    vertex 87.80042867947589 -9.25 5.0
  endloop
endfacet
facet normal 1.0 0.0 0.0
  outer loop
    vertex 87.80042867947589 21.25 5.0
    vertex 87.80056769760928 -9.24993290428654 1.4810749919558848
    vertex 87.80056769760928 21.250067095713458 1.4810749919558848
  endloop
endfacet
facet normal 1.8022188056306925e-17 5.207080366523112e-05 0.9999999986443158
  outer loop
    vertex 4.134488629317999 -0.9247699999890141 10.488785505921395
    vertex 13.000317143888491 12.750573649649793 10.488073419786193
    vertex 4.134466991181539 12.738815999976715 10.488807144057851
  endloop
endfacet
facet normal 1.8022188056306925e-17 5.207080366523112e-05 0.9999999986443158
  outer loop
    vertex 13.000317143888491 12.750573649649793 10.488073419786193
    vertex 4.134488629317999 -0.9247699999890141 10.488785505921395
    vertex 13.00042902867079 -0.9247699999890141 10.488785505921394
  endloop
endfacet
facet normal -0.0 -0.0 1.0
  outer loop
    vertex 61.00042867947589 -9.25 5.0
    vertex 63.00042867947589 -7.2500000000000036 5.0
    vertex 61.000429028670794 -0.9247699999890141 4.9999955059213965
  endloop
endfacet
facet normal -0.0 -0.0 1.0
  outer loop
    vertex 63.00042867947589 -7.2500000000000036 5.0
    vertex 61.00042867947589 -9.25 5.0
    vertex 87.80042867947589 -9.25 5.0
  endloop
endfacet
facet normal -0.0 -0.0 1.0
  outer loop
    vertex 63.00042867947589 -7.2500000000000036 5.0
    vertex 87.80042867947589 -9.25 5.0
    vertex 83.39584267947589 -7.250000000000001 5.0
  endloop
endfacet
facet normal -0.0 -0.0 1.0
  outer loop
    vertex 83.39584267947589 -7.250000000000001 5.0
    vertex 87.80042867947589 -9.25 5.0
    vertex 83.39584267947589 19.250000000000004 5.0
  endloop
endfacet
facet normal -0.0 -0.0 1.0
  outer loop
    vertex 13.00042902867079 -0.9247699999890141 4.9999955059213965
    vertex 61.00031714388851 12.750573649649793 4.999283419786197
    vertex 13.000317143888491 12.750573649649793 4.999283419786197
  endloop
endfacet
facet normal -0.0 -0.0 1.0
  outer loop
    vertex 61.00031714388851 12.750573649649793 4.999283419786197
    vertex 13.00042902867079 -0.9247699999890141 4.9999955059213965
    vertex 61.000429028670794 -0.9247699999890141 4.9999955059213965
  endloop
endfacet
facet normal -0.0 -0.0 1.0
  outer loop
    vertex 61.00031714388851 12.750573649649793 4.999283419786197
    vertex 61.000429028670794 -0.9247699999890141 4.9999955059213965
    vertex 61.00042867947589 21.25 5.0
  endloop
endfacet
facet normal -0.0 -0.0 1.0
  outer loop
    vertex 61.00042867947589 21.25 5.0
    vertex 61.000429028670794 -0.9247699999890141 4.9999955059213965
    vertex 63.00042867947589 19.250000000000004 5.0
  endloop
endfacet
facet normal -0.0 -0.0 1.0
  outer loop
    vertex 61.00042867947589 21.25 5.0
    vertex 63.00042867947589 19.250000000000004 5.0
    vertex 87.80042867947589 21.25 5.0
  endloop
endfacet
facet normal -0.0 -0.0 1.0
  outer loop
    vertex 63.00042867947589 19.250000000000004 5.0
    vertex 61.000429028670794 -0.9247699999890141 4.9999955059213965
    vertex 63.00042867947589 -7.2500000000000036 5.0
  endloop
endfacet
facet normal -0.0 -0.0 1.0
  outer loop
    vertex 87.80042867947589 21.25 5.0
    vertex 63.00042867947589 19.250000000000004 5.0
    vertex 83.39584267947589 19.250000000000004 5.0
  endloop
endfacet
facet normal -0.0 -0.0 1.0
  outer loop
    vertex 87.80042867947589 21.25 5.0
    vertex 83.39584267947589 19.250000000000004 5.0
    vertex 87.80042867947589 -9.25 5.0
  endloop
endfacet
facet normal 1.0 0.0 0.0
  outer loop
    vertex 13.000317143888491 12.750573649649793 4.999283419786197
    vertex 13.00042902867079 -0.9247699999890141 10.488785505921394
    vertex 13.00042902867079 -0.9247699999890141 4.9999955059213965
  endloop
endfacet
facet normal 1.0 0.0 0.0
  outer loop
    vertex 13.00042902867079 -0.9247699999890141 10.488785505921394
    vertex 13.000317143888491 12.750573649649793 4.999283419786197
    vertex 13.000317143888491 12.750573649649793 10.488073419786193
  endloop
endfacet
facet normal 0.0 1.0 0.0
  outer loop
    vertex 61.000567697609284 21.250067095713458 1.481495863758814
    vertex 87.80042867947589 21.25 5.0
    vertex 87.80056769760928 21.250067095713458 1.4810749919558848
  endloop
endfacet
facet normal 0.0 1.0 0.0
  outer loop
    vertex 87.80042867947589 21.25 5.0
    vertex 61.000567697609284 21.250067095713458 1.481495863758814
    vertex 61.00042867947589 21.25 5.0
  endloop
endfacet
facet normal -1.0 0.0 0.0
  outer loop
    vertex 61.00042867947589 21.25 5.0
    vertex 61.000456162021905 12.750640745363253 1.4807792835450113
    vertex 61.00031714388851 12.750573649649793 4.999283419786197
  endloop
endfacet
facet normal -1.0 0.0 0.0
  outer loop
    vertex 61.000456162021905 12.750640745363253 1.4807792835450113
    vertex 61.00042867947589 21.25 5.0
    vertex 61.000567697609284 21.250067095713458 1.481495863758814
  endloop
endfacet
facet normal 0.0 -1.0 0.0
  outer loop
    vertex 87.80042867947589 -9.25 5.0
    vertex 61.000567697609284 -9.24993290428654 1.4810749919558848
    vertex 87.80056769760928 -9.24993290428654 1.4810749919558848
  endloop
endfacet
facet normal 0.0 -1.0 0.0
  outer loop
    vertex 61.000567697609284 -9.24993290428654 1.4810749919558848
    vertex 87.80042867947589 -9.25 5.0
    vertex 61.00042867947589 -9.25 5.0
  endloop
endfacet
facet normal -1.0 -0.0 -0.0
  outer loop
    vertex 61.000429028670794 -0.9247699999890141 4.9999955059213965
    vertex 61.000567697609284 -9.24993290428654 1.4810749919558848
    vertex 61.00042867947589 -9.25 5.0
  endloop
endfacet
facet normal -1.0 -0.0 -0.0
  outer loop
    vertex 61.000567697609284 -9.24993290428654 1.4810749919558848
    vertex 61.000429028670794 -0.9247699999890141 4.9999955059213965
    vertex 61.00056804680419 -0.9247029042755538 1.4810704978772817
  endloop
endfacet
facet normal 0.0 0.0 1.0
  outer loop
    vertex 83.39584267947589 -0.10648068743736143 2.7598730000000025
    vertex 79.20342959510666 11.918502875208066 2.7598730000000025
    vertex 79.20329057697327 -0.10648068743736143 2.7598730000000025
  endloop
endfacet
facet normal 0.0 0.0 1.0
  outer loop
    vertex 79.20342959510666 11.918502875208066 2.7598730000000025
    vertex 83.39584267947589 -0.10648068743736143 2.7598730000000025
    vertex 83.39584267947589 11.918502875208066 2.7598730000000025
  endloop
endfacet
facet normal 0.0 0.0 1.0
  outer loop
    vertex 79.20329057697327 -7.250000000000003 2.7598730000000025
    vertex 66.82137375424313 19.250000000000004 2.7598730000000025
    vertex 66.82137375424313 -7.2500000000000036 2.7598730000000025
  endloop
endfacet
facet normal 0.0 0.0 1.0
  outer loop
    vertex 66.82137375424313 19.250000000000004 2.7598730000000025
    vertex 79.20329057697327 -7.250000000000003 2.7598730000000025
    vertex 79.20329057697327 -0.10648068743736143 2.7598730000000025
  endloop
endfacet
facet normal 0.0 0.0 1.0
  outer loop
    vertex 66.82137375424313 19.250000000000004 2.7598730000000025
    vertex 79.20329057697327 -0.10648068743736143 2.7598730000000025
    vertex 79.20342959510666 19.250000000000004 2.7598730000000025
  endloop
endfacet
facet normal 0.0 0.0 1.0
  outer loop
    vertex 79.20342959510666 19.250000000000004 2.7598730000000025
    vertex 79.20329057697327 -0.10648068743736143 2.7598730000000025
    vertex 79.20342959510666 11.918502875208066 2.7598730000000025
  endloop
endfacet
facet normal 0.0 -1.0 0.0
  outer loop
    vertex 83.39584267947589 19.250000000000004 5.0
    vertex 79.20356861324005 19.25006709571346 1.4764934176068616
    vertex 83.39598169760929 19.25006709571346 1.4764934176068616
  endloop
endfacet
facet normal 0.0 -1.0 0.0
  outer loop
    vertex 79.20356861324005 19.25006709571346 1.4764934176068616
    vertex 83.39584267947589 19.250000000000004 5.0
    vertex 79.20342959510666 19.250000000000004 2.7598730000000025
  endloop
endfacet
facet normal 0.0 -1.0 0.0
  outer loop
    vertex 79.20342959510666 19.250000000000004 2.7598730000000025
    vertex 83.39584267947589 19.250000000000004 5.0
    vertex 66.82137375424313 19.250000000000004 2.7598730000000025
  endloop
endfacet
facet normal 0.0 -1.0 0.0
  outer loop
    vertex 66.82137375424313 19.250000000000004 2.7598730000000025
    vertex 63.000567697609284 19.25006709571346 1.4813886686785913
    vertex 66.82151277237654 19.25006709571346 1.4813886686785913
  endloop
endfacet
facet normal 0.0 -1.0 0.0
  outer loop
    vertex 63.000567697609284 19.25006709571346 1.4813886686785913
    vertex 66.82137375424313 19.250000000000004 2.7598730000000025
    vertex 63.00042867947589 19.250000000000004 5.0
  endloop
endfacet
facet normal 0.0 -1.0 0.0
  outer loop
    vertex 63.00042867947589 19.250000000000004 5.0
    vertex 66.82137375424313 19.250000000000004 2.7598730000000025
    vertex 83.39584267947589 19.250000000000004 5.0
  endloop
endfacet
facet normal 1.0 -0.0 -0.0
  outer loop
    vertex 63.000567697609284 -7.249932904286544 1.4813886686785913
    vertex 63.00042867947589 19.250000000000004 5.0
    vertex 63.00042867947589 -7.2500000000000036 5.0
  endloop
endfacet
facet normal 1.0 -0.0 -0.0
  outer loop
    vertex 63.00042867947589 19.250000000000004 5.0
    vertex 63.000567697609284 -7.249932904286544 1.4813886686785913
    vertex 63.000567697609284 19.25006709571346 1.4813886686785913
  endloop
endfacet
facet normal -1.2087513094940726e-16 1.0 -1.0464360349414295e-16
  outer loop
    vertex 63.00042867947589 -7.2500000000000036 5.0
    vertex 66.82151277237654 -7.249932904286544 1.4813886686785913
    vertex 63.000567697609284 -7.249932904286544 1.4813886686785913
  endloop
endfacet
facet normal -1.2087513094940726e-16 1.0 -1.0464360349414295e-16
  outer loop
    vertex 66.82151277237654 -7.249932904286544 1.4813886686785913
    vertex 63.00042867947589 -7.2500000000000036 5.0
    vertex 66.82137375424313 -7.2500000000000036 2.7598730000000025
  endloop
endfacet
facet normal -1.2087513094940726e-16 1.0 -1.0464360349414295e-16
  outer loop
    vertex 66.82137375424313 -7.2500000000000036 2.7598730000000025
    vertex 63.00042867947589 -7.2500000000000036 5.0
    vertex 79.20329057697327 -7.250000000000003 2.7598730000000025
  endloop
endfacet
facet normal -1.2087513094940726e-16 1.0 -1.0464360349414295e-16
  outer loop
    vertex 79.20329057697327 -7.250000000000003 2.7598730000000025
    vertex 83.39598169760929 -7.249932904286541 1.4764934176068616
    vertex 79.20342959510667 -7.249932904286543 1.4764934176068616
  endloop
endfacet
facet normal -1.2087513094940726e-16 1.0 -1.0464360349414295e-16
  outer loop
    vertex 83.39598169760929 -7.249932904286541 1.4764934176068616
    vertex 79.20329057697327 -7.250000000000003 2.7598730000000025
    vertex 83.39584267947589 -7.250000000000001 5.0
  endloop
endfacet
facet normal -1.2087513094940726e-16 1.0 -1.0464360349414295e-16
  outer loop
    vertex 83.39584267947589 -7.250000000000001 5.0
    vertex 79.20329057697327 -7.250000000000003 2.7598730000000025
    vertex 63.00042867947589 -7.2500000000000036 5.0
  endloop
endfacet
facet normal -1.0 0.0 0.0
  outer loop
    vertex 83.39584267947589 -7.250000000000001 5.0
    vertex 83.39584267947589 -0.10648068743736143 2.7598730000000025
    vertex 83.39598169760929 -7.249932904286541 1.4764934176068616
  endloop
endfacet
facet normal -1.0 0.0 0.0
  outer loop
    vertex 83.39584267947589 -0.10648068743736143 2.7598730000000025
    vertex 83.39584267947589 -7.250000000000001 5.0
    vertex 83.39584267947589 19.250000000000004 5.0
  endloop
endfacet
facet normal -1.0 0.0 0.0
  outer loop
    vertex 83.39584267947589 -0.10648068743736143 2.7598730000000025
    vertex 83.39584267947589 19.250000000000004 5.0
    vertex 83.39584267947589 11.918502875208066 2.7598730000000025
  endloop
endfacet
facet normal -1.0 0.0 0.0
  outer loop
    vertex 83.39584267947589 11.918502875208066 2.7598730000000025
    vertex 83.39584267947589 19.250000000000004 5.0
    vertex 83.39598169760929 11.918569970921526 1.4764934176068616
  endloop
endfacet
facet normal -1.0 0.0 0.0
  outer loop
    vertex 83.39598169760929 11.918569970921526 1.4764934176068616
    vertex 83.39584267947589 19.250000000000004 5.0
    vertex 83.39598169760929 19.25006709571346 1.4764934176068616
  endloop
endfacet
facet normal -1.0 0.0 0.0
  outer loop
    vertex 83.39598169760929 -0.10641359172390127 1.4764934176068616
    vertex 83.39598169760929 -7.249932904286541 1.4764934176068616
    vertex 83.39584267947589 -0.10648068743736143 2.7598730000000025
  endloop
endfacet
facet normal 1.0 0.0 0.0
  outer loop
    vertex 79.20356861324005 11.918569970921526 1.4764934176068616
    vertex 79.20342959510666 19.250000000000004 2.7598730000000025
    vertex 79.20342959510666 11.918502875208066 2.7598730000000025
  endloop
endfacet
facet normal 1.0 0.0 0.0
  outer loop
    vertex 79.20342959510666 19.250000000000004 2.7598730000000025
    vertex 79.20356861324005 11.918569970921526 1.4764934176068616
    vertex 79.20356861324005 19.25006709571346 1.4764934176068616
  endloop
endfacet
facet normal -1.0 0.0 -0.0
  outer loop
    vertex 66.82137375424313 19.250000000000004 2.7598730000000025
    vertex 66.82151277237654 -7.249932904286544 1.4813886686785913
    vertex 66.82137375424313 -7.2500000000000036 2.7598730000000025
  endloop
endfacet
facet normal -1.0 0.0 -0.0
  outer loop
    vertex 66.82151277237654 -7.249932904286544 1.4813886686785913
    vertex 66.82137375424313 19.250000000000004 2.7598730000000025
    vertex 66.82151277237654 19.25006709571346 1.4813886686785913
  endloop
endfacet
facet normal -0.020391815193635025 -0.0 0.9997920653181385
  outer loop
    vertex 6.840518601075839 -0.9247699999890141 4.072847716963104
    vertex 7.362402921484743 12.750573649649793 4.082782294786625
    vertex 6.840406716293553 12.750573649649793 4.072135630827905
  endloop
endfacet
facet normal -0.020391815193635025 -0.0 0.9997920653181385
  outer loop
    vertex 7.362402921484743 12.750573649649793 4.082782294786625
    vertex 6.840518601075839 -0.9247699999890141 4.072847716963104
    vertex 7.362514806267029 -0.9247699999890141 4.083494380921826
  endloop
endfacet
facet normal -0.2784622085871663 -0.0 0.9604471866733525
  outer loop
    vertex 7.362514806267029 -0.9247699999890141 4.083494380921826
    vertex 7.8638569779044785 12.750573649649793 4.2281687418429
    vertex 7.362402921484743 12.750573649649793 4.082782294786625
  endloop
endfacet
facet normal -0.2784622085871663 -0.0 0.9604471866733525
  outer loop
    vertex 7.8638569779044785 12.750573649649793 4.2281687418429
    vertex 7.362514806267029 -0.9247699999890141 4.083494380921826
    vertex 7.863968862686765 -0.9247699999890141 4.2288808279781
  endloop
endfacet
facet normal -0.5175558626460351 -0.0 0.855649419470801
  outer loop
    vertex 7.863968862686765 -0.9247699999890141 4.2288808279781
    vertex 8.310595620299765 12.750573649649793 4.498387125892304
    vertex 7.8638569779044785 12.750573649649793 4.2281687418429
  endloop
endfacet
facet normal -0.5175558626460351 -0.0 0.855649419470801
  outer loop
    vertex 8.310595620299765 12.750573649649793 4.498387125892304
    vertex 7.863968862686765 -0.9247699999890141 4.2288808279781
    vertex 8.31070750508205 -0.9247699999890141 4.499099212027503
  endloop
endfacet
facet normal -0.7213789399670822 -0.0 0.6925405583588363
  outer loop
    vertex 8.672174348461873 12.750573649649793 4.875022510618866
    vertex 8.31070750508205 -0.9247699999890141 4.499099212027503
    vertex 8.67228623324416 -0.9247699999890141 4.875734596754065
  endloop
endfacet
facet normal -0.7213789399670822 -0.0 0.6925405583588363
  outer loop
    vertex 8.31070750508205 -0.9247699999890141 4.499099212027503
    vertex 8.672174348461873 12.750573649649793 4.875022510618866
    vertex 8.310595620299765 12.750573649649793 4.498387125892304
  endloop
endfacet
facet normal -0.8760412346644372 -0.0 0.4822362026721018
  outer loop
    vertex 8.92395216960366 12.750573649649793 5.332407816972874
    vertex 8.67228623324416 -0.9247699999890141 4.875734596754065
    vertex 8.924064054385946 -0.9247699999890141 5.333119903108074
  endloop
endfacet
facet normal -0.8760412346644372 -0.0 0.4822362026721018
  outer loop
    vertex 8.67228623324416 -0.9247699999890141 4.875734596754065
    vertex 8.92395216960366 12.750573649649793 5.332407816972874
    vertex 8.672174348461873 12.750573649649793 4.875022510618866
  endloop
endfacet
facet normal -0.9710027669460011 -0.0 0.2390682467062697
  outer loop
    vertex 9.048770841296832 12.750573649649793 5.839372992191255
    vertex 8.924064054385946 -0.9247699999890141 5.333119903108074
    vertex 9.04888272607912 -0.9247699999890141 5.840085078326456
  endloop
endfacet
facet normal -0.9710027669460011 -0.0 0.2390682467062697
  outer loop
    vertex 8.924064054385946 -0.9247699999890141 5.333119903108074
    vertex 9.048770841296832 12.750573649649793 5.839372992191255
    vertex 8.92395216960366 12.750573649649793 5.332407816972874
  endloop
endfacet
facet normal -0.9997920653181385 -0.0 -0.020391815193634998
  outer loop
    vertex 9.038124177338112 12.750573649649793 6.361369197382444
    vertex 9.04888272607912 -0.9247699999890141 5.840085078326456
    vertex 9.038236062120399 -0.9247699999890141 6.362081283517644
  endloop
endfacet
facet normal -0.9997920653181385 -0.0 -0.020391815193634998
  outer loop
    vertex 9.04888272607912 -0.9247699999890141 5.840085078326456
    vertex 9.038124177338112 12.750573649649793 6.361369197382444
    vertex 9.048770841296832 12.750573649649793 5.839372992191255
  endloop
endfacet
facet normal -0.9604471866733525 -0.0 -0.2784622085871663
  outer loop
    vertex 8.892737730281837 12.750573649649793 6.862823253802181
    vertex 9.038236062120399 -0.9247699999890141 6.362081283517644
    vertex 8.892849615064124 -0.9247699999890141 6.86353533993738
  endloop
endfacet
facet normal -0.9604471866733525 -0.0 -0.2784622085871663
  outer loop
    vertex 9.038236062120399 -0.9247699999890141 6.362081283517644
    vertex 8.892737730281837 12.750573649649793 6.862823253802181
    vertex 9.038124177338112 12.750573649649793 6.361369197382444
  endloop
endfacet
facet normal -0.855649419470801 -0.0 -0.5175558626460351
  outer loop
    vertex 8.622519346232433 12.750573649649793 7.309561896197465
    vertex 8.892849615064124 -0.9247699999890141 6.86353533993738
    vertex 8.62263123101472 -0.9247699999890141 7.3102739823326655
  endloop
endfacet
facet normal -0.855649419470801 -0.0 -0.5175558626460351
  outer loop
    vertex 8.892849615064124 -0.9247699999890141 6.86353533993738
    vertex 8.622519346232433 12.750573649649793 7.309561896197465
    vertex 8.892737730281837 12.750573649649793 6.862823253802181
  endloop
endfacet
facet normal -0.692540558358835 -0.0 -0.7213789399670836
  outer loop
    vertex 8.622519346232433 12.750573649649793 7.309561896197465
    vertex 8.245995846288158 -0.9247699999890141 7.671852710494773
    vertex 8.245883961505871 12.750573649649793 7.671140624359573
  endloop
endfacet
facet normal -0.692540558358835 -0.0 -0.7213789399670836
  outer loop
    vertex 8.245995846288158 -0.9247699999890141 7.671852710494773
    vertex 8.622519346232433 12.750573649649793 7.309561896197465
    vertex 8.62263123101472 -0.9247699999890141 7.3102739823326655
  endloop
endfacet
facet normal -0.482236202672103 -0.0 -0.8760412346644365
  outer loop
    vertex 8.245883961505871 12.750573649649793 7.671140624359573
    vertex 7.788610539934152 -0.9247699999890141 7.92363053163656
    vertex 7.788498655151865 12.750573649649793 7.92291844550136
  endloop
endfacet
facet normal -0.482236202672103 -0.0 -0.8760412346644365
  outer loop
    vertex 7.788610539934152 -0.9247699999890141 7.92363053163656
    vertex 8.245883961505871 12.750573649649793 7.671140624359573
    vertex 8.245995846288158 -0.9247699999890141 7.671852710494773
  endloop
endfacet
facet normal -0.2390682467062694 -0.0 -0.9710027669460012
  outer loop
    vertex 7.788498655151865 12.750573649649793 7.92291844550136
    vertex 7.281645364715769 -0.9247699999890141 8.048449203329733
    vertex 7.281533479933483 12.750573649649793 8.047737117194533
  endloop
endfacet
facet normal -0.2390682467062694 -0.0 -0.9710027669460012
  outer loop
    vertex 7.281645364715769 -0.9247699999890141 8.048449203329733
    vertex 7.788498655151865 12.750573649649793 7.92291844550136
    vertex 7.788610539934152 -0.9247699999890141 7.92363053163656
  endloop
endfacet
facet normal 0.02039181519363497 -0.0 -0.9997920653181384
  outer loop
    vertex 7.281533479933483 12.750573649649793 8.047737117194533
    vertex 6.759649159524578 -0.9247699999890141 8.037802539371013
    vertex 6.759537274742292 12.750573649649793 8.037090453235813
  endloop
endfacet
facet normal 0.02039181519363497 -0.0 -0.9997920653181384
  outer loop
    vertex 6.759649159524578 -0.9247699999890141 8.037802539371013
    vertex 7.281533479933483 12.750573649649793 8.047737117194533
    vertex 7.281645364715769 -0.9247699999890141 8.048449203329733
  endloop
endfacet
facet normal 0.2784622085871642 -0.0 -0.960447186673353
  outer loop
    vertex 6.759537274742292 12.750573649649793 8.037090453235813
    vertex 6.258195103104848 -0.9247699999890141 7.892416092314739
    vertex 6.258083218322555 12.750573649649793 7.891704006179539
  endloop
endfacet
facet normal 0.2784622085871642 -0.0 -0.960447186673353
  outer loop
    vertex 6.258195103104848 -0.9247699999890141 7.892416092314739
    vertex 6.759537274742292 12.750573649649793 8.037090453235813
    vertex 6.759649159524578 -0.9247699999890141 8.037802539371013
  endloop
endfacet
facet normal 0.517555862646037 -0.0 -0.8556494194707996
  outer loop
    vertex 6.258083218322555 12.750573649649793 7.891704006179539
    vertex 5.811456460709563 -0.9247699999890141 7.622197708265334
    vertex 5.8113445759272695 12.750573649649793 7.621485622130134
  endloop
endfacet
facet normal 0.517555862646037 -0.0 -0.8556494194707996
  outer loop
    vertex 5.811456460709563 -0.9247699999890141 7.622197708265334
    vertex 6.258083218322555 12.750573649649793 7.891704006179539
    vertex 6.258195103104848 -0.9247699999890141 7.892416092314739
  endloop
endfacet
facet normal 0.7213789399670829 -0.0 -0.6925405583588357
  outer loop
    vertex 5.4497658477651605 12.750573649649793 7.244850237403573
    vertex 5.811456460709563 -0.9247699999890141 7.622197708265334
    vertex 5.449877732547455 -0.9247699999890141 7.245562323538772
  endloop
endfacet
facet normal 0.7213789399670829 -0.0 -0.6925405583588357
  outer loop
    vertex 5.811456460709563 -0.9247699999890141 7.622197708265334
    vertex 5.4497658477651605 12.750573649649793 7.244850237403573
    vertex 5.8113445759272695 12.750573649649793 7.621485622130134
  endloop
endfacet
facet normal 0.8760412346644365 -0.0 -0.482236202672103
  outer loop
    vertex 5.197988026623374 12.750573649649793 6.787464931049565
    vertex 5.449877732547455 -0.9247699999890141 7.245562323538772
    vertex 5.198099911405667 -0.9247699999890141 6.788177017184765
  endloop
endfacet
facet normal 0.8760412346644365 -0.0 -0.482236202672103
  outer loop
    vertex 5.449877732547455 -0.9247699999890141 7.245562323538772
    vertex 5.197988026623374 12.750573649649793 6.787464931049565
    vertex 5.4497658477651605 12.750573649649793 7.244850237403573
  endloop
endfacet
facet normal 0.9710027669460013 -0.0 -0.23906824670626908
  outer loop
    vertex 5.073169354930201 12.750573649649793 6.280499755831184
    vertex 5.198099911405667 -0.9247699999890141 6.788177017184765
    vertex 5.073281239712494 -0.9247699999890141 6.281211841966384
  endloop
endfacet
facet normal 0.9710027669460013 -0.0 -0.23906824670626908
  outer loop
    vertex 5.198099911405667 -0.9247699999890141 6.788177017184765
    vertex 5.073169354930201 12.750573649649793 6.280499755831184
    vertex 5.197988026623374 12.750573649649793 6.787464931049565
  endloop
endfacet
facet normal 0.9997920653181384 0.0 0.020391815193636344
  outer loop
    vertex 5.083816018888922 12.750573649649793 5.758503550639993
    vertex 5.073281239712494 -0.9247699999890141 6.281211841966384
    vertex 5.083927903671216 -0.9247699999890141 5.759215636775194
  endloop
endfacet
facet normal 0.9997920653181384 0.0 0.020391815193636344
  outer loop
    vertex 5.073281239712494 -0.9247699999890141 6.281211841966384
    vertex 5.083816018888922 12.750573649649793 5.758503550639993
    vertex 5.073169354930201 12.750573649649793 6.280499755831184
  endloop
endfacet
facet normal 0.9604471866733528 0.0 0.27846220858716547
  outer loop
    vertex 5.229202465945196 12.750573649649793 5.257049494220258
    vertex 5.083927903671216 -0.9247699999890141 5.759215636775194
    vertex 5.229314350727489 -0.9247699999890141 5.257761580355458
  endloop
endfacet
facet normal 0.9604471866733528 0.0 0.27846220858716547
  outer loop
    vertex 5.083927903671216 -0.9247699999890141 5.759215636775194
    vertex 5.229202465945196 12.750573649649793 5.257049494220258
    vertex 5.083816018888922 12.750573649649793 5.758503550639993
  endloop
endfacet
facet normal 0.855649419470801 0.0 0.5175558626460351
  outer loop
    vertex 5.4994208499946 12.750573649649793 4.8103108518249735
    vertex 5.229314350727489 -0.9247699999890141 5.257761580355458
    vertex 5.499532734776893 -0.9247699999890141 4.811022937960173
  endloop
endfacet
facet normal 0.855649419470801 0.0 0.5175558626460351
  outer loop
    vertex 5.229314350727489 -0.9247699999890141 5.257761580355458
    vertex 5.4994208499946 12.750573649649793 4.8103108518249735
    vertex 5.229202465945196 12.750573649649793 5.257049494220258
  endloop
endfacet
facet normal 0.6925405583588357 0.0 0.7213789399670829
  outer loop
    vertex 5.499532734776893 -0.9247699999890141 4.811022937960173
    vertex 5.876056234721162 12.750573649649793 4.4487321236628645
    vertex 5.4994208499946 12.750573649649793 4.8103108518249735
  endloop
endfacet
facet normal 0.6925405583588357 0.0 0.7213789399670829
  outer loop
    vertex 5.876056234721162 12.750573649649793 4.4487321236628645
    vertex 5.499532734776893 -0.9247699999890141 4.811022937960173
    vertex 5.876168119503455 -0.9247699999890141 4.449444209798065
  endloop
endfacet
facet normal 0.48223620267210354 0.0 0.8760412346644362
  outer loop
    vertex 5.876168119503455 -0.9247699999890141 4.449444209798065
    vertex 6.333441541075168 12.750573649649793 4.196954302521077
    vertex 5.876056234721162 12.750573649649793 4.4487321236628645
  endloop
endfacet
facet normal 0.48223620267210354 0.0 0.8760412346644362
  outer loop
    vertex 6.333441541075168 12.750573649649793 4.196954302521077
    vertex 5.876168119503455 -0.9247699999890141 4.449444209798065
    vertex 6.3335534258574615 -0.9247699999890141 4.197666388656278
  endloop
endfacet
facet normal 0.23906824670626908 0.0 0.9710027669460013
  outer loop
    vertex 6.3335534258574615 -0.9247699999890141 4.197666388656278
    vertex 6.840406716293553 12.750573649649793 4.072135630827905
    vertex 6.333441541075168 12.750573649649793 4.196954302521077
  endloop
endfacet
facet normal 0.23906824670626908 0.0 0.9710027669460013
  outer loop
    vertex 6.840406716293553 12.750573649649793 4.072135630827905
    vertex 6.3335534258574615 -0.9247699999890141 4.197666388656278
    vertex 6.840518601075839 -0.9247699999890141 4.072847716963104
  endloop
endfacet
facet normal 1.0 0.0 0.0
  outer loop
    vertex 79.20342959510667 -7.249932904286543 1.4764934176068616
    vertex 79.20329057697327 -0.10648068743736143 2.7598730000000025
    vertex 79.20329057697327 -7.250000000000003 2.7598730000000025
  endloop
endfacet
facet normal 1.0 0.0 0.0
  outer loop
    vertex 79.20329057697327 -0.10648068743736143 2.7598730000000025
    vertex 79.20342959510667 -7.249932904286543 1.4764934176068616
    vertex 79.20342959510667 -0.10641359172390127 1.4764934176068616
  endloop
endfacet
facet normal 0.0 -1.0 0.0
  outer loop
    vertex 83.39584267947589 -0.10648068743736143 2.7598730000000025
    vertex 79.20342959510667 -0.10641359172390127 1.4764934176068616
    vertex 83.39598169760929 -0.10641359172390127 1.4764934176068616
  endloop
endfacet
facet normal 0.0 -1.0 0.0
  outer loop
    vertex 79.20342959510667 -0.10641359172390127 1.4764934176068616
    vertex 83.39584267947589 -0.10648068743736143 2.7598730000000025
    vertex 79.20329057697327 -0.10648068743736143 2.7598730000000025
  endloop
endfacet
facet normal 0.0 1.0 0.0
  outer loop
    vertex 79.20342959510666 11.918502875208066 2.7598730000000025
    vertex 83.39598169760929 11.918569970921526 1.4764934176068616
    vertex 79.20356861324005 11.918569970921526 1.4764934176068616
  endloop
endfacet
facet normal 0.0 1.0 0.0
  outer loop
    vertex 83.39598169760929 11.918569970921526 1.4764934176068616
    vertex 79.20342959510666 11.918502875208066 2.7598730000000025
    vertex 83.39584267947589 11.918502875208066 2.7598730000000025
  endloop
endfacet
facet normal -3.0553322153526935e-05 8.063576958030296e-06 -0.9999999995007367
  outer loop
    vertex 61.000456162021905 12.750640745363253 1.4807792835450113
    vertex 5.247589842919797 -0.9247029042755538 1.4834345883122335
    vertex 5.247281298853039 12.741650743659285 1.4826757086006783
  endloop
endfacet
facet normal -3.0553322153526935e-05 8.063576958030296e-06 -0.9999999995007367
  outer loop
    vertex 5.247589842919797 -0.9247029042755538 1.4834345883122335
    vertex 61.000456162021905 12.750640745363253 1.4807792835450113
    vertex 61.00056804680419 -0.9247029042755538 1.4810704978772817
  endloop
endfacet
facet normal -3.0553322153526935e-05 8.063576958030296e-06 -0.9999999995007367
  outer loop
    vertex 61.00056804680419 -0.9247029042755538 1.4810704978772817
    vertex 61.000456162021905 12.750640745363253 1.4807792835450113
    vertex 61.000567697609284 21.250067095713458 1.481495863758814
  endloop
endfacet
facet normal -3.0553322153526935e-05 8.063576958030296e-06 -0.9999999995007367
  outer loop
    vertex 61.00056804680419 -0.9247029042755538 1.4810704978772817
    vertex 61.000567697609284 21.250067095713458 1.481495863758814
    vertex 63.000567697609284 19.25006709571346 1.4813886686785913
  endloop
endfacet
facet normal -3.0553322153526935e-05 8.063576958030296e-06 -0.9999999995007367
  outer loop
    vertex 63.000567697609284 19.25006709571346 1.4813886686785913
    vertex 61.000567697609284 21.250067095713458 1.481495863758814
    vertex 87.80056769760928 21.250067095713458 1.4810749919558848
  endloop
endfacet
facet normal -3.0553322153526935e-05 8.063576958030296e-06 -0.9999999995007367
  outer loop
    vertex 63.000567697609284 19.25006709571346 1.4813886686785913
    vertex 87.80056769760928 21.250067095713458 1.4810749919558848
    vertex 66.82151277237654 19.25006709571346 1.4813886686785913
  endloop
endfacet
facet normal -3.0553322153526935e-05 8.063576958030296e-06 -0.9999999995007367
  outer loop
    vertex 66.82151277237654 19.25006709571346 1.4813886686785913
    vertex 87.80056769760928 21.250067095713458 1.4810749919558848
    vertex 79.20356861324005 19.25006709571346 1.4764934176068616
  endloop
endfacet
facet normal -3.0553322153526935e-05 8.063576958030296e-06 -0.9999999995007367
  outer loop
    vertex 66.82151277237654 19.25006709571346 1.4813886686785913
    vertex 79.20356861324005 19.25006709571346 1.4764934176068616
    vertex 66.82151277237654 -7.249932904286544 1.4813886686785913
  endloop
endfacet
facet normal -3.0553322153526935e-05 8.063576958030296e-06 -0.9999999995007367
  outer loop
    vertex 66.82151277237654 -7.249932904286544 1.4813886686785913
    vertex 79.20356861324005 19.25006709571346 1.4764934176068616
    vertex 79.20342959510667 -0.10641359172390127 1.4764934176068616
  endloop
endfacet
facet normal -3.0553322153526935e-05 8.063576958030296e-06 -0.9999999995007367
  outer loop
    vertex 79.20356861324005 19.25006709571346 1.4764934176068616
    vertex 87.80056769760928 21.250067095713458 1.4810749919558848
    vertex 83.39598169760929 19.25006709571346 1.4764934176068616
  endloop
endfacet
facet normal -3.0553322153526935e-05 8.063576958030296e-06 -0.9999999995007367
  outer loop
    vertex 83.39598169760929 19.25006709571346 1.4764934176068616
    vertex 87.80056769760928 21.250067095713458 1.4810749919558848
    vertex 83.39598169760929 11.918569970921526 1.4764934176068616
  endloop
endfacet
facet normal -3.0553322153526935e-05 8.063576958030296e-06 -0.9999999995007367
  outer loop
    vertex 83.39598169760929 11.918569970921526 1.4764934176068616
    vertex 87.80056769760928 21.250067095713458 1.4810749919558848
    vertex 83.39598169760929 -0.10641359172390127 1.4764934176068616
  endloop
endfacet
facet normal -3.0553322153526935e-05 8.063576958030296e-06 -0.9999999995007367
  outer loop
    vertex 83.39598169760929 -0.10641359172390127 1.4764934176068616
    vertex 87.80056769760928 21.250067095713458 1.4810749919558848
    vertex 83.39598169760929 -7.249932904286541 1.4764934176068616
  endloop
endfacet
facet normal -3.0553322153526935e-05 8.063576958030296e-06 -0.9999999995007367
  outer loop
    vertex 61.000567697609284 -9.24993290428654 1.4810749919558848
    vertex 63.000567697609284 -7.249932904286544 1.4813886686785913
    vertex 87.80056769760928 -9.24993290428654 1.4810749919558848
  endloop
endfacet
facet normal -3.0553322153526935e-05 8.063576958030296e-06 -0.9999999995007367
  outer loop
    vertex 63.000567697609284 -7.249932904286544 1.4813886686785913
    vertex 61.000567697609284 -9.24993290428654 1.4810749919558848
    vertex 61.00056804680419 -0.9247029042755538 1.4810704978772817
  endloop
endfacet
facet normal -3.0553322153526935e-05 8.063576958030296e-06 -0.9999999995007367
  outer loop
    vertex 63.000567697609284 -7.249932904286544 1.4813886686785913
    vertex 61.00056804680419 -0.9247029042755538 1.4810704978772817
    vertex 63.000567697609284 19.25006709571346 1.4813886686785913
  endloop
endfacet
facet normal -3.0553322153526935e-05 8.063576958030296e-06 -0.9999999995007367
  outer loop
    vertex 87.80056769760928 -9.24993290428654 1.4810749919558848
    vertex 63.000567697609284 -7.249932904286544 1.4813886686785913
    vertex 66.82151277237654 -7.249932904286544 1.4813886686785913
  endloop
endfacet
facet normal -3.0553322153526935e-05 8.063576958030296e-06 -0.9999999995007367
  outer loop
    vertex 87.80056769760928 -9.24993290428654 1.4810749919558848
    vertex 66.82151277237654 -7.249932904286544 1.4813886686785913
    vertex 79.20342959510667 -7.249932904286543 1.4764934176068616
  endloop
endfacet
facet normal -3.0553322153526935e-05 8.063576958030296e-06 -0.9999999995007367
  outer loop
    vertex 79.20342959510667 -7.249932904286543 1.4764934176068616
    vertex 66.82151277237654 -7.249932904286544 1.4813886686785913
    vertex 79.20342959510667 -0.10641359172390127 1.4764934176068616
  endloop
endfacet
facet normal -3.0553322153526935e-05 8.063576958030296e-06 -0.9999999995007367
  outer loop
    vertex 87.80056769760928 -9.24993290428654 1.4810749919558848
    vertex 79.20342959510667 -7.249932904286543 1.4764934176068616
    vertex 83.39598169760929 -7.249932904286541 1.4764934176068616
  endloop
endfacet
facet normal -3.0553322153526935e-05 8.063576958030296e-06 -0.9999999995007367
  outer loop
    vertex 87.80056769760928 -9.24993290428654 1.4810749919558848
    vertex 83.39598169760929 -7.249932904286541 1.4764934176068616
    vertex 87.80056769760928 21.250067095713458 1.4810749919558848
  endloop
endfacet
facet normal -3.0553322153526935e-05 8.063576958030296e-06 -0.9999999995007367
  outer loop
    vertex 79.20342959510667 -0.10641359172390127 1.4764934176068616
    vertex 79.20356861324005 11.918569970921526 1.4764934176068616
    vertex 83.39598169760929 -0.10641359172390127 1.4764934176068616
  endloop
endfacet
facet normal -3.0553322153526935e-05 8.063576958030296e-06 -0.9999999995007367
  outer loop
    vertex 79.20356861324005 11.918569970921526 1.4764934176068616
    vertex 79.20342959510667 -0.10641359172390127 1.4764934176068616
    vertex 79.20356861324005 19.25006709571346 1.4764934176068616
  endloop
endfacet
facet normal -3.0553322153526935e-05 8.063576958030296e-06 -0.9999999995007367
  outer loop
    vertex 83.39598169760929 -0.10641359172390127 1.4764934176068616
    vertex 79.20356861324005 11.918569970921526 1.4764934176068616
    vertex 83.39598169760929 11.918569970921526 1.4764934176068616
  endloop
endfacet
facet normal -0.05668484701374802 -4.825776930192218e-06 -0.9983921214110917
  outer loop
    vertex 5.247281298853039 12.741650743659285 1.4826757086006783
    vertex 4.7563486839380476 -0.9247168267091009 1.5113253633030925
    vertex 4.756040139871291 12.741636821225738 1.5105664835915376
  endloop
endfacet
facet normal -0.05668484701374802 -4.825776930192218e-06 -0.9983921214110917
  outer loop
    vertex 4.7563486839380476 -0.9247168267091009 1.5113253633030925
    vertex 5.247281298853039 12.741650743659285 1.4826757086006783
    vertex 5.247589842919797 -0.9247029042755538 1.4834345883122335
  endloop
endfacet
facet normal -0.1692424057654039 -6.621764470466265e-06 -0.9855744558616009
  outer loop
    vertex 4.756040139871291 12.741636821225738 1.5105664835915376
    vertex 4.271414230228619 -0.9247296407400584 1.594598091386755
    vertex 4.271105686161862 12.74162400719478 1.5938392116752007
  endloop
endfacet
facet normal -0.1692424057654039 -6.621764470466265e-06 -0.9855744558616009
  outer loop
    vertex 4.271414230228619 -0.9247296407400584 1.594598091386755
    vertex 4.756040139871291 12.741636821225738 1.5105664835915376
    vertex 4.7563486839380476 -0.9247168267091009 1.5113253633030925
  endloop
endfacet
facet normal -0.2796279926767208 -8.332771619014505e-06 -0.9601084238991724
  outer loop
    vertex 4.271105686161862 12.74162400719478 1.5938392116752007
    vertex 3.799009886447822 -0.9247411819196033 1.7321840922916176
    vertex 3.798701342381065 12.741612466015235 1.7314252125800633
  endloop
endfacet
facet normal -0.2796279926767208 -8.332771619014505e-06 -0.9601084238991724
  outer loop
    vertex 3.799009886447822 -0.9247411819196033 1.7321840922916176
    vertex 4.271105686161862 12.74162400719478 1.5938392116752007
    vertex 4.271414230228619 -0.9247296407400584 1.594598091386755
  endloop
endfacet
facet normal -0.3864249746957699 -9.936840171401273e-06 -0.922320843759173
  outer loop
    vertex 3.798701342381065 12.741612466015235 1.7314252125800633
    vertex 3.345198252128972 -0.9247513021340478 1.922317656544731
    vertex 3.3448897080622153 12.741602345800791 1.9215587768331768
  endloop
endfacet
facet normal -0.3864249746957699 -9.936840171401273e-06 -0.922320843759173
  outer loop
    vertex 3.345198252128972 -0.9247513021340478 1.922317656544731
    vertex 3.798701342381065 12.741612466015235 1.7314252125800633
    vertex 3.799009886447822 -0.9247411819196033 1.7321840922916176
  endloop
endfacet
facet normal -0.4882627731195692 -1.1413384319357738e-05 -0.8726966622230904
  outer loop
    vertex 3.3448897080622153 12.741602345800791 1.9215587768331768
    vertex 2.9158033173319704 -0.9247598715056541 2.162558705698291
    vertex 2.9154947732652228 12.741593776429184 2.161799825986737
  endloop
endfacet
facet normal -0.4882627731195692 -1.1413384319357738e-05 -0.8726966622230904
  outer loop
    vertex 2.9158033173319704 -0.9247598715056541 2.162558705698291
    vertex 3.3448897080622153 12.741602345800791 1.9215587768331768
    vertex 3.345198252128972 -0.9247513021340478 1.922317656544731
  endloop
endfacet
facet normal -0.5838344529110624 -1.2743454838625298e-05 -0.8118727310555793
  outer loop
    vertex 2.9154947732652228 12.741593776429184 2.161799825986737
    vertex 2.516335720486759 -0.9247667800594209 2.4498241070680704
    vertex 2.5160271764200113 12.741586867875416 2.449065227356516
  endloop
endfacet
facet normal -0.5838344529110624 -1.2743454838625298e-05 -0.8118727310555793
  outer loop
    vertex 2.516335720486759 -0.9247667800594209 2.4498241070680704
    vertex 2.9154947732652228 12.741593776429184 2.161799825986737
    vertex 2.9158033173319704 -0.9247598715056541 2.162558705698291
  endloop
endfacet
facet normal -0.6719134952452946 -1.3909982273757657e-05 -0.7406296339694786
  outer loop
    vertex 2.5160271764200113 12.741586867875416 2.449065227356516
    vertex 2.151922027633829 -0.9247719391344472 2.7804272411061968
    vertex 2.1516134835670813 12.74158170880039 2.7796683613946427
  endloop
endfacet
facet normal -0.6719134952452946 -1.3909982273757657e-05 -0.7406296339694786
  outer loop
    vertex 2.151922027633829 -0.9247719391344472 2.7804272411061968
    vertex 2.5160271764200113 12.741586867875416 2.449065227356516
    vertex 2.516335720486759 -0.9247667800594209 2.4498241070680704
  endloop
endfacet
facet normal -0.7513695380344056 -1.4897995998916453e-05 -0.6598816690074166
  outer loop
    vertex 1.8269303965897028 12.741578365413078 3.149366433908982
    vertex 2.151922027633829 -0.9247719391344472 2.7804272411061968
    vertex 1.8272389406564504 -0.9247752825217611 3.1501253136205363
  endloop
endfacet
facet normal -0.7513695380344056 -1.4897995998916453e-05 -0.6598816690074166
  outer loop
    vertex 2.151922027633829 -0.9247719391344472 2.7804272411061968
    vertex 1.8269303965897028 12.741578365413078 3.149366433908982
    vertex 2.1516134835670813 12.74158170880039 2.7796683613946427
  endloop
endfacet
facet normal -0.8211828824254723 -1.569481634334468e-05 -0.5706651149010826
  outer loop
    vertex 1.5461447347762587 12.741576880620824 3.55341492594792
    vertex 1.8272389406564504 -0.9247752825217611 3.1501253136205363
    vertex 1.5464532788430077 -0.9247767673140131 3.5541738056594747
  endloop
endfacet
facet normal -0.8211828824254723 -1.569481634334468e-05 -0.5706651149010826
  outer loop
    vertex 1.8272389406564504 -0.9247752825217611 3.1501253136205363
    vertex 1.5461447347762587 12.741576880620824 3.55341492594792
    vertex 1.8269303965897028 12.741578365413078 3.149366433908982
  endloop
endfacet
facet normal -0.880457579102164 -1.6290217315876877e-05 -0.4741249319917543
  outer loop
    vertex 1.3131685040259 -0.9247763744561267 3.9873873622796876
    vertex 1.5461447347762587 12.741576880620824 3.55341492594792
    vertex 1.5464532788430077 -0.9247767673140131 3.5541738056594747
  endloop
endfacet
facet normal -0.880457579102164 -1.6290217315876877e-05 -0.4741249319917543
  outer loop
    vertex 1.5461447347762587 12.741576880620824 3.55341492594792
    vertex 1.3131685040259 -0.9247763744561267 3.9873873622796876
    vertex 1.312859959959151 12.741577273478713 3.9866284825681326
  endloop
endfacet
facet normal -0.9284329264471425 -1.6676557840161035e-05 -0.37150006838584526
  outer loop
    vertex 1.1303784755664021 -0.9247741089898426 4.444206338781103
    vertex 1.312859959959151 12.741577273478713 3.9866284825681326
    vertex 1.3131685040259 -0.9247763744561267 3.9873873622796876
  endloop
endfacet
facet normal -0.9284329264471425 -1.6676557840161035e-05 -0.37150006838584526
  outer loop
    vertex 1.312859959959151 12.741577273478713 3.9866284825681326
    vertex 1.1303784755664021 -0.9247741089898426 4.444206338781103
    vertex 1.1300699314996532 12.741579538944995 4.4434474590695485
  endloop
endfacet
facet normal -0.9644932330036742 -1.6848879816435518e-05 -0.2641075599187493
  outer loop
    vertex 1.0004290286707784 -0.9247699999890141 4.918768150388184
    vertex 1.1300699314996532 12.741579538944995 4.4434474590695485
    vertex 1.1303784755664021 -0.9247741089898426 4.444206338781103
  endloop
endfacet
facet normal -0.9644932330036742 -1.6848879816435518e-05 -0.2641075599187493
  outer loop
    vertex 1.1300699314996532 12.741579538944995 4.4434474590695485
    vertex 1.0004290286707784 -0.9247699999890141 4.918768150388184
    vertex 1.0001204846040295 12.741583647945824 4.918009270676629
  endloop
endfacet
facet normal -0.00014860038770387192 0.99999953322363 -0.0009547096139793358
  outer loop
    vertex 1.1300699314996532 12.741579538944995 4.4434474590695485
    vertex 6.840406716293553 12.750573649649793 4.072135630827905
    vertex 1.312859959959151 12.741577273478713 3.9866284825681326
  endloop
endfacet
facet normal -0.00014860038770387192 0.99999953322363 -0.0009547096139793358
  outer loop
    vertex 6.840406716293553 12.750573649649793 4.072135630827905
    vertex 1.1300699314996532 12.741579538944995 4.4434474590695485
    vertex 6.333441541075168 12.750573649649793 4.196954302521077
  endloop
endfacet
facet normal -0.00014860038770387192 0.99999953322363 -0.0009547096139793358
  outer loop
    vertex 6.333441541075168 12.750573649649793 4.196954302521077
    vertex 1.1300699314996532 12.741579538944995 4.4434474590695485
    vertex 5.876056234721162 12.750573649649793 4.4487321236628645
  endloop
endfacet
facet normal -0.00014860038770387192 0.99999953322363 -0.0009547096139793358
  outer loop
    vertex 5.876056234721162 12.750573649649793 4.4487321236628645
    vertex 1.1300699314996532 12.741579538944995 4.4434474590695485
    vertex 1.0001204846040295 12.741583647945824 4.918009270676629
  endloop
endfacet
facet normal -0.00014860038770387192 0.99999953322363 -0.0009547096139793358
  outer loop
    vertex 5.876056234721162 12.750573649649793 4.4487321236628645
    vertex 1.0001204846040295 12.741583647945824 4.918009270676629
    vertex 5.4994208499946 12.750573649649793 4.8103108518249735
  endloop
endfacet
facet normal -0.00014860038770387192 0.99999953322363 -0.0009547096139793358
  outer loop
    vertex 5.4994208499946 12.750573649649793 4.8103108518249735
    vertex 1.0001204846040295 12.741583647945824 4.918009270676629
    vertex 5.229202465945196 12.750573649649793 5.257049494220258
  endloop
endfacet
facet normal -0.00014860038770387192 0.99999953322363 -0.0009547096139793358
  outer loop
    vertex 5.229202465945196 12.750573649649793 5.257049494220258
    vertex 1.0001204846040295 12.741583647945824 4.918009270676629
    vertex 1.0004073905343196 12.738815999976715 7.354747543410629
  endloop
endfacet
facet normal -0.00014860038770387192 0.99999953322363 -0.0009547096139793358
  outer loop
    vertex 5.229202465945196 12.750573649649793 5.257049494220258
    vertex 1.0004073905343196 12.738815999976715 7.354747543410629
    vertex 5.083816018888922 12.750573649649793 5.758503550639993
  endloop
endfacet
facet normal -0.00014860038770387192 0.99999953322363 -0.0009547096139793358
  outer loop
    vertex 5.083816018888922 12.750573649649793 5.758503550639993
    vertex 1.0004073905343196 12.738815999976715 7.354747543410629
    vertex 5.073169354930201 12.750573649649793 6.280499755831184
  endloop
endfacet
facet normal -0.00014860038770387192 0.99999953322363 -0.0009547096139793358
  outer loop
    vertex 5.073169354930201 12.750573649649793 6.280499755831184
    vertex 1.0004073905343196 12.738815999976715 7.354747543410629
    vertex 5.197988026623374 12.750573649649793 6.787464931049565
  endloop
endfacet
facet normal -0.00014860038770387192 0.99999953322363 -0.0009547096139793358
  outer loop
    vertex 5.197988026623374 12.750573649649793 6.787464931049565
    vertex 1.0004073905343196 12.738815999976715 7.354747543410629
    vertex 5.4497658477651605 12.750573649649793 7.244850237403573
  endloop
endfacet
facet normal -0.00014860038770387192 0.99999953322363 -0.0009547096139793358
  outer loop
    vertex 5.4497658477651605 12.750573649649793 7.244850237403573
    vertex 1.0004073905343196 12.738815999976715 7.354747543410629
    vertex 5.8113445759272695 12.750573649649793 7.621485622130134
  endloop
endfacet
facet normal -0.00014860038770387192 0.99999953322363 -0.0009547096139793358
  outer loop
    vertex 5.8113445759272695 12.750573649649793 7.621485622130134
    vertex 1.0004073905343196 12.738815999976715 7.354747543410629
    vertex 1.0272197049505651 12.738810778352972 7.763824409225492
  endloop
endfacet
facet normal -0.00014860038770387192 0.99999953322363 -0.0009547096139793358
  outer loop
    vertex 5.8113445759272695 12.750573649649793 7.621485622130134
    vertex 1.0272197049505651 12.738810778352972 7.763824409225492
    vertex 6.258083218322555 12.750573649649793 7.891704006179539
  endloop
endfacet
facet normal -0.00014860038770387192 0.99999953322363 -0.0009547096139793358
  outer loop
    vertex 6.258083218322555 12.750573649649793 7.891704006179539
    vertex 1.0272197049505651 12.738810778352972 7.763824409225492
    vertex 1.107197881913313 12.738806378569654 8.16590185645039
  endloop
endfacet
facet normal -0.00014860038770387192 0.99999953322363 -0.0009547096139793358
  outer loop
    vertex 6.258083218322555 12.750573649649793 7.891704006179539
    vertex 1.107197881913313 12.738806378569654 8.16590185645039
    vertex 6.759537274742292 12.750573649649793 8.037090453235813
  endloop
endfacet
facet normal -0.00014860038770387192 0.99999953322363 -0.0009547096139793358
  outer loop
    vertex 6.759537274742292 12.750573649649793 8.037090453235813
    vertex 1.107197881913313 12.738806378569654 8.16590185645039
    vertex 7.281533479933483 12.750573649649793 8.047737117194533
  endloop
endfacet
facet normal -0.00014860038770387192 0.99999953322363 -0.0009547096139793358
  outer loop
    vertex 8.92395216960366 12.750573649649793 5.332407816972874
    vertex 13.000317143888491 12.750573649649793 4.999283419786197
    vertex 8.672174348461873 12.750573649649793 4.875022510618866
  endloop
endfacet
facet normal -0.00014860038770387192 0.99999953322363 -0.0009547096139793358
  outer loop
    vertex 13.000317143888491 12.750573649649793 4.999283419786197
    vertex 8.92395216960366 12.750573649649793 5.332407816972874
    vertex 13.000317143888491 12.750573649649793 10.488073419786193
  endloop
endfacet
facet normal -0.00014860038770387192 0.99999953322363 -0.0009547096139793358
  outer loop
    vertex 13.000317143888491 12.750573649649793 10.488073419786193
    vertex 8.92395216960366 12.750573649649793 5.332407816972874
    vertex 9.048770841296832 12.750573649649793 5.839372992191255
  endloop
endfacet
facet normal -0.00014860038770387192 0.99999953322363 -0.0009547096139793358
  outer loop
    vertex 13.000317143888491 12.750573649649793 10.488073419786193
    vertex 9.048770841296832 12.750573649649793 5.839372992191255
    vertex 9.038124177338112 12.750573649649793 6.361369197382444
  endloop
endfacet
facet normal -0.00014860038770387192 0.99999953322363 -0.0009547096139793358
  outer loop
    vertex 13.000317143888491 12.750573649649793 10.488073419786193
    vertex 9.038124177338112 12.750573649649793 6.361369197382444
    vertex 8.892737730281837 12.750573649649793 6.862823253802181
  endloop
endfacet
facet normal -0.00014860038770387192 0.99999953322363 -0.0009547096139793358
  outer loop
    vertex 13.000317143888491 12.750573649649793 10.488073419786193
    vertex 8.892737730281837 12.750573649649793 6.862823253802181
    vertex 8.622519346232433 12.750573649649793 7.309561896197465
  endloop
endfacet
facet normal -0.00014860038770387192 0.99999953322363 -0.0009547096139793358
  outer loop
    vertex 13.000317143888491 12.750573649649793 10.488073419786193
    vertex 8.622519346232433 12.750573649649793 7.309561896197465
    vertex 8.245883961505871 12.750573649649793 7.671140624359573
  endloop
endfacet
facet normal -0.00014860038770387192 0.99999953322363 -0.0009547096139793358
  outer loop
    vertex 13.000317143888491 12.750573649649793 10.488073419786193
    vertex 8.245883961505871 12.750573649649793 7.671140624359573
    vertex 7.788498655151865 12.750573649649793 7.92291844550136
  endloop
endfacet
facet normal -0.00014860038770387192 0.99999953322363 -0.0009547096139793358
  outer loop
    vertex 13.000317143888491 12.750573649649793 10.488073419786193
    vertex 7.788498655151865 12.750573649649793 7.92291844550136
    vertex 7.281533479933483 12.750573649649793 8.047737117194533
  endloop
endfacet
facet normal -0.00014860038770387192 0.99999953322363 -0.0009547096139793358
  outer loop
    vertex 13.000317143888491 12.750573649649793 10.488073419786193
    vertex 7.281533479933483 12.750573649649793 8.047737117194533
    vertex 1.107197881913313 12.738806378569654 8.16590185645039
  endloop
endfacet
facet normal -0.00014860038770387192 0.99999953322363 -0.0009547096139793358
  outer loop
    vertex 13.000317143888491 12.750573649649793 10.488073419786193
    vertex 1.107197881913313 12.738806378569654 8.16590185645039
    vertex 1.2389734726409145 12.73880287590827 8.554100228488004
  endloop
endfacet
facet normal -0.00014860038770387192 0.99999953322363 -0.0009547096139793358
  outer loop
    vertex 13.000317143888491 12.750573649649793 10.488073419786193
    vertex 1.2389734726409145 12.73880287590827 8.554100228488004
    vertex 1.4202917602414604 12.738800330300325 8.921777343565429
  endloop
endfacet
facet normal -0.00014860038770387192 0.99999953322363 -0.0009547096139793358
  outer loop
    vertex 13.000317143888491 12.750573649649793 10.488073419786193
    vertex 1.4202917602414604 12.738800330300325 8.921777343565429
    vertex 1.6480503385439156 12.738798785301885 9.262642144305826
  endloop
endfacet
facet normal -0.00014860038770387192 0.99999953322363 -0.0009547096139793358
  outer loop
    vertex 13.000317143888491 12.750573649649793 10.488073419786193
    vertex 1.6480503385439156 12.738798785301885 9.262642144305826
    vertex 1.9183521951278386 12.738798267348292 9.570862339464334
  endloop
endfacet
facet normal -0.00014860038770387192 0.99999953322363 -0.0009547096139793358
  outer loop
    vertex 13.000317143888491 12.750573649649793 10.488073419786193
    vertex 1.9183521951278386 12.738798267348292 9.570862339464334
    vertex 2.226572390286346 12.738798785301885 9.841164196048256
  endloop
endfacet
facet normal -0.00014860038770387192 0.99999953322363 -0.0009547096139793358
  outer loop
    vertex 13.000317143888491 12.750573649649793 10.488073419786193
    vertex 2.226572390286346 12.738798785301885 9.841164196048256
    vertex 2.5674371910267424 12.738800330300325 10.06892277435071
  endloop
endfacet
facet normal -0.00014860038770387192 0.99999953322363 -0.0009547096139793358
  outer loop
    vertex 13.000317143888491 12.750573649649793 10.488073419786193
    vertex 2.5674371910267424 12.738800330300325 10.06892277435071
    vertex 2.935114306104167 12.73880287590827 10.250241061951256
  endloop
endfacet
facet normal -0.00014860038770387192 0.99999953322363 -0.0009547096139793358
  outer loop
    vertex 13.000317143888491 12.750573649649793 10.488073419786193
    vertex 2.935114306104167 12.73880287590827 10.250241061951256
    vertex 3.32331267814178 12.738806378569654 10.382016652678859
  endloop
endfacet
facet normal -0.00014860038770387192 0.99999953322363 -0.0009547096139793358
  outer loop
    vertex 13.000317143888491 12.750573649649793 10.488073419786193
    vertex 3.32331267814178 12.738806378569654 10.382016652678859
    vertex 3.7253901253666766 12.738810778352972 10.461994829641606
  endloop
endfacet
facet normal -0.00014860038770387192 0.99999953322363 -0.0009547096139793358
  outer loop
    vertex 13.000317143888491 12.750573649649793 10.488073419786193
    vertex 3.7253901253666766 12.738810778352972 10.461994829641606
    vertex 4.134466991181539 12.738815999976715 10.488807144057851
  endloop
endfacet
facet normal -0.00014860038770387192 0.99999953322363 -0.0009547096139793358
  outer loop
    vertex 5.247281298853039 12.741650743659285 1.4826757086006783
    vertex 61.00031714388851 12.750573649649793 4.999283419786197
    vertex 61.000456162021905 12.750640745363253 1.4807792835450113
  endloop
endfacet
facet normal -0.00014860038770387192 0.99999953322363 -0.0009547096139793358
  outer loop
    vertex 61.00031714388851 12.750573649649793 4.999283419786197
    vertex 5.247281298853039 12.741650743659285 1.4826757086006783
    vertex 4.756040139871291 12.741636821225738 1.5105664835915376
  endloop
endfacet
facet normal -0.00014860038770387192 0.99999953322363 -0.0009547096139793358
  outer loop
    vertex 61.00031714388851 12.750573649649793 4.999283419786197
    vertex 4.756040139871291 12.741636821225738 1.5105664835915376
    vertex 4.271105686161862 12.74162400719478 1.5938392116752007
  endloop
endfacet
facet normal -0.00014860038770387192 0.99999953322363 -0.0009547096139793358
  outer loop
    vertex 61.00031714388851 12.750573649649793 4.999283419786197
    vertex 4.271105686161862 12.74162400719478 1.5938392116752007
    vertex 3.798701342381065 12.741612466015235 1.7314252125800633
  endloop
endfacet
facet normal -0.00014860038770387192 0.99999953322363 -0.0009547096139793358
  outer loop
    vertex 61.00031714388851 12.750573649649793 4.999283419786197
    vertex 3.798701342381065 12.741612466015235 1.7314252125800633
    vertex 3.3448897080622153 12.741602345800791 1.9215587768331768
  endloop
endfacet
facet normal -0.00014860038770387192 0.99999953322363 -0.0009547096139793358
  outer loop
    vertex 61.00031714388851 12.750573649649793 4.999283419786197
    vertex 3.3448897080622153 12.741602345800791 1.9215587768331768
    vertex 2.9154947732652228 12.741593776429184 2.161799825986737
  endloop
endfacet
facet normal -0.00014860038770387192 0.99999953322363 -0.0009547096139793358
  outer loop
    vertex 61.00031714388851 12.750573649649793 4.999283419786197
    vertex 2.9154947732652228 12.741593776429184 2.161799825986737
    vertex 2.5160271764200113 12.741586867875416 2.449065227356516
  endloop
endfacet
facet normal -0.00014860038770387192 0.99999953322363 -0.0009547096139793358
  outer loop
    vertex 61.00031714388851 12.750573649649793 4.999283419786197
    vertex 2.5160271764200113 12.741586867875416 2.449065227356516
    vertex 2.1516134835670813 12.74158170880039 2.7796683613946427
  endloop
endfacet
facet normal -0.00014860038770387192 0.99999953322363 -0.0009547096139793358
  outer loop
    vertex 61.00031714388851 12.750573649649793 4.999283419786197
    vertex 2.1516134835670813 12.74158170880039 2.7796683613946427
    vertex 1.8269303965897028 12.741578365413078 3.149366433908982
  endloop
endfacet
facet normal -0.00014860038770387192 0.99999953322363 -0.0009547096139793358
  outer loop
    vertex 61.00031714388851 12.750573649649793 4.999283419786197
    vertex 1.8269303965897028 12.741578365413078 3.149366433908982
    vertex 1.5461447347762587 12.741576880620824 3.55341492594792
  endloop
endfacet
facet normal -0.00014860038770387192 0.99999953322363 -0.0009547096139793358
  outer loop
    vertex 61.00031714388851 12.750573649649793 4.999283419786197
    vertex 1.5461447347762587 12.741576880620824 3.55341492594792
    vertex 6.840406716293553 12.750573649649793 4.072135630827905
  endloop
endfacet
facet normal -0.00014860038770387192 0.99999953322363 -0.0009547096139793358
  outer loop
    vertex 6.840406716293553 12.750573649649793 4.072135630827905
    vertex 1.5461447347762587 12.741576880620824 3.55341492594792
    vertex 1.312859959959151 12.741577273478713 3.9866284825681326
  endloop
endfacet
facet normal -0.00014860038770387192 0.99999953322363 -0.0009547096139793358
  outer loop
    vertex 61.00031714388851 12.750573649649793 4.999283419786197
    vertex 6.840406716293553 12.750573649649793 4.072135630827905
    vertex 7.362402921484743 12.750573649649793 4.082782294786625
  endloop
endfacet
facet normal -0.00014860038770387192 0.99999953322363 -0.0009547096139793358
  outer loop
    vertex 61.00031714388851 12.750573649649793 4.999283419786197
    vertex 7.362402921484743 12.750573649649793 4.082782294786625
    vertex 7.8638569779044785 12.750573649649793 4.2281687418429
  endloop
endfacet
facet normal -0.00014860038770387192 0.99999953322363 -0.0009547096139793358
  outer loop
    vertex 61.00031714388851 12.750573649649793 4.999283419786197
    vertex 7.8638569779044785 12.750573649649793 4.2281687418429
    vertex 8.310595620299765 12.750573649649793 4.498387125892304
  endloop
endfacet
facet normal -0.00014860038770387192 0.99999953322363 -0.0009547096139793358
  outer loop
    vertex 61.00031714388851 12.750573649649793 4.999283419786197
    vertex 8.310595620299765 12.750573649649793 4.498387125892304
    vertex 8.672174348461873 12.750573649649793 4.875022510618866
  endloop
endfacet
facet normal -0.00014860038770387192 0.99999953322363 -0.0009547096139793358
  outer loop
    vertex 61.00031714388851 12.750573649649793 4.999283419786197
    vertex 8.672174348461873 12.750573649649793 4.875022510618866
    vertex 13.000317143888491 12.750573649649793 4.999283419786197
  endloop
endfacet
facet normal 3.8470668455751947e-07 -0.9999999999900606 -4.441953372904183e-06
  outer loop
    vertex 61.000429028670794 -0.9247699999890141 4.9999955059213965
    vertex 5.247589842919797 -0.9247029042755538 1.4834345883122335
    vertex 61.00056804680419 -0.9247029042755538 1.4810704978772817
  endloop
endfacet
facet normal 3.8470668455751947e-07 -0.9999999999900606 -4.441953372904183e-06
  outer loop
    vertex 5.247589842919797 -0.9247029042755538 1.4834345883122335
    vertex 61.000429028670794 -0.9247699999890141 4.9999955059213965
    vertex 4.7563486839380476 -0.9247168267091009 1.5113253633030925
  endloop
endfacet
facet normal 3.8470668455751947e-07 -0.9999999999900606 -4.441953372904183e-06
  outer loop
    vertex 4.7563486839380476 -0.9247168267091009 1.5113253633030925
    vertex 61.000429028670794 -0.9247699999890141 4.9999955059213965
    vertex 4.271414230228619 -0.9247296407400584 1.594598091386755
  endloop
endfacet
facet normal 3.8470668455751947e-07 -0.9999999999900606 -4.441953372904183e-06
  outer loop
    vertex 4.271414230228619 -0.9247296407400584 1.594598091386755
    vertex 61.000429028670794 -0.9247699999890141 4.9999955059213965
    vertex 3.799009886447822 -0.9247411819196033 1.7321840922916176
  endloop
endfacet
facet normal 3.8470668455751947e-07 -0.9999999999900606 -4.441953372904183e-06
  outer loop
    vertex 3.799009886447822 -0.9247411819196033 1.7321840922916176
    vertex 61.000429028670794 -0.9247699999890141 4.9999955059213965
    vertex 3.345198252128972 -0.9247513021340478 1.922317656544731
  endloop
endfacet
facet normal 3.8470668455751947e-07 -0.9999999999900606 -4.441953372904183e-06
  outer loop
    vertex 3.345198252128972 -0.9247513021340478 1.922317656544731
    vertex 61.000429028670794 -0.9247699999890141 4.9999955059213965
    vertex 2.9158033173319704 -0.9247598715056541 2.162558705698291
  endloop
endfacet
facet normal 3.8470668455751947e-07 -0.9999999999900606 -4.441953372904183e-06
  outer loop
    vertex 2.9158033173319704 -0.9247598715056541 2.162558705698291
    vertex 61.000429028670794 -0.9247699999890141 4.9999955059213965
    vertex 2.516335720486759 -0.9247667800594209 2.4498241070680704
  endloop
endfacet
facet normal 3.8470668455751947e-07 -0.9999999999900606 -4.441953372904183e-06
  outer loop
    vertex 2.516335720486759 -0.9247667800594209 2.4498241070680704
    vertex 61.000429028670794 -0.9247699999890141 4.9999955059213965
    vertex 2.151922027633829 -0.9247719391344472 2.7804272411061968
  endloop
endfacet
facet normal 3.8470668455751947e-07 -0.9999999999900606 -4.441953372904183e-06
  outer loop
    vertex 2.151922027633829 -0.9247719391344472 2.7804272411061968
    vertex 61.000429028670794 -0.9247699999890141 4.9999955059213965
    vertex 1.8272389406564504 -0.9247752825217611 3.1501253136205363
  endloop
endfacet
facet normal 3.8470668455751947e-07 -0.9999999999900606 -4.441953372904183e-06
  outer loop
    vertex 1.8272389406564504 -0.9247752825217611 3.1501253136205363
    vertex 61.000429028670794 -0.9247699999890141 4.9999955059213965
    vertex 1.5464532788430077 -0.9247767673140131 3.5541738056594747
  endloop
endfacet
facet normal 3.8470668455751947e-07 -0.9999999999900606 -4.441953372904183e-06
  outer loop
    vertex 1.5464532788430077 -0.9247767673140131 3.5541738056594747
    vertex 61.000429028670794 -0.9247699999890141 4.9999955059213965
    vertex 6.840518601075839 -0.9247699999890141 4.072847716963104
  endloop
endfacet
facet normal 3.8470668455751947e-07 -0.9999999999900606 -4.441953372904183e-06
  outer loop
    vertex 1.5464532788430077 -0.9247767673140131 3.5541738056594747
    vertex 6.840518601075839 -0.9247699999890141 4.072847716963104
    vertex 1.3131685040259 -0.9247763744561267 3.9873873622796876
  endloop
endfacet
facet normal 3.8470668455751947e-07 -0.9999999999900606 -4.441953372904183e-06
  outer loop
    vertex 6.840518601075839 -0.9247699999890141 4.072847716963104
    vertex 61.000429028670794 -0.9247699999890141 4.9999955059213965
    vertex 7.362514806267029 -0.9247699999890141 4.083494380921826
  endloop
endfacet
facet normal 3.8470668455751947e-07 -0.9999999999900606 -4.441953372904183e-06
  outer loop
    vertex 7.362514806267029 -0.9247699999890141 4.083494380921826
    vertex 61.000429028670794 -0.9247699999890141 4.9999955059213965
    vertex 7.863968862686765 -0.9247699999890141 4.2288808279781
  endloop
endfacet
facet normal 3.8470668455751947e-07 -0.9999999999900606 -4.441953372904183e-06
  outer loop
    vertex 7.863968862686765 -0.9247699999890141 4.2288808279781
    vertex 61.000429028670794 -0.9247699999890141 4.9999955059213965
    vertex 8.31070750508205 -0.9247699999890141 4.499099212027503
  endloop
endfacet
facet normal 3.8470668455751947e-07 -0.9999999999900606 -4.441953372904183e-06
  outer loop
    vertex 8.31070750508205 -0.9247699999890141 4.499099212027503
    vertex 61.000429028670794 -0.9247699999890141 4.9999955059213965
    vertex 8.67228623324416 -0.9247699999890141 4.875734596754065
  endloop
endfacet
facet normal 3.8470668455751947e-07 -0.9999999999900606 -4.441953372904183e-06
  outer loop
    vertex 8.67228623324416 -0.9247699999890141 4.875734596754065
    vertex 61.000429028670794 -0.9247699999890141 4.9999955059213965
    vertex 13.00042902867079 -0.9247699999890141 4.9999955059213965
  endloop
endfacet
facet normal 3.8470668455751947e-07 -0.9999999999900606 -4.441953372904183e-06
  outer loop
    vertex 8.67228623324416 -0.9247699999890141 4.875734596754065
    vertex 13.00042902867079 -0.9247699999890141 4.9999955059213965
    vertex 8.924064054385946 -0.9247699999890141 5.333119903108074
  endloop
endfacet
facet normal 3.8470668455751947e-07 -0.9999999999900606 -4.441953372904183e-06
  outer loop
    vertex 8.924064054385946 -0.9247699999890141 5.333119903108074
    vertex 13.00042902867079 -0.9247699999890141 4.9999955059213965
    vertex 13.00042902867079 -0.9247699999890141 10.488785505921394
  endloop
endfacet
facet normal 3.8470668455751947e-07 -0.9999999999900606 -4.441953372904183e-06
  outer loop
    vertex 8.924064054385946 -0.9247699999890141 5.333119903108074
    vertex 13.00042902867079 -0.9247699999890141 10.488785505921394
    vertex 9.04888272607912 -0.9247699999890141 5.840085078326456
  endloop
endfacet
facet normal 3.8470668455751947e-07 -0.9999999999900606 -4.441953372904183e-06
  outer loop
    vertex 9.04888272607912 -0.9247699999890141 5.840085078326456
    vertex 13.00042902867079 -0.9247699999890141 10.488785505921394
    vertex 9.038236062120399 -0.9247699999890141 6.362081283517644
  endloop
endfacet
facet normal 3.8470668455751947e-07 -0.9999999999900606 -4.441953372904183e-06
  outer loop
    vertex 9.038236062120399 -0.9247699999890141 6.362081283517644
    vertex 13.00042902867079 -0.9247699999890141 10.488785505921394
    vertex 8.892849615064124 -0.9247699999890141 6.86353533993738
  endloop
endfacet
facet normal 3.8470668455751947e-07 -0.9999999999900606 -4.441953372904183e-06
  outer loop
    vertex 8.892849615064124 -0.9247699999890141 6.86353533993738
    vertex 13.00042902867079 -0.9247699999890141 10.488785505921394
    vertex 8.62263123101472 -0.9247699999890141 7.3102739823326655
  endloop
endfacet
facet normal 3.8470668455751947e-07 -0.9999999999900606 -4.441953372904183e-06
  outer loop
    vertex 8.62263123101472 -0.9247699999890141 7.3102739823326655
    vertex 13.00042902867079 -0.9247699999890141 10.488785505921394
    vertex 8.245995846288158 -0.9247699999890141 7.671852710494773
  endloop
endfacet
facet normal 3.8470668455751947e-07 -0.9999999999900606 -4.441953372904183e-06
  outer loop
    vertex 8.245995846288158 -0.9247699999890141 7.671852710494773
    vertex 13.00042902867079 -0.9247699999890141 10.488785505921394
    vertex 7.788610539934152 -0.9247699999890141 7.92363053163656
  endloop
endfacet
facet normal 3.8470668455751947e-07 -0.9999999999900606 -4.441953372904183e-06
  outer loop
    vertex 7.788610539934152 -0.9247699999890141 7.92363053163656
    vertex 13.00042902867079 -0.9247699999890141 10.488785505921394
    vertex 7.281645364715769 -0.9247699999890141 8.048449203329733
  endloop
endfacet
facet normal 3.8470668455751947e-07 -0.9999999999900606 -4.441953372904183e-06
  outer loop
    vertex 7.281645364715769 -0.9247699999890141 8.048449203329733
    vertex 13.00042902867079 -0.9247699999890141 10.488785505921394
    vertex 1.1072195200497719 -0.9247796213960754 8.165880218313932
  endloop
endfacet
facet normal 3.8470668455751947e-07 -0.9999999999900606 -4.441953372904183e-06
  outer loop
    vertex 1.1072195200497719 -0.9247796213960754 8.165880218313932
    vertex 13.00042902867079 -0.9247699999890141 10.488785505921394
    vertex 1.2389951107773731 -0.9247831240574599 8.554078590351548
  endloop
endfacet
facet normal 3.8470668455751947e-07 -0.9999999999900606 -4.441953372904183e-06
  outer loop
    vertex 1.2389951107773731 -0.9247831240574599 8.554078590351548
    vertex 13.00042902867079 -0.9247699999890141 10.488785505921394
    vertex 1.4203133983779193 -0.924785669665402 8.921755705428971
  endloop
endfacet
facet normal 3.8470668455751947e-07 -0.9999999999900606 -4.441953372904183e-06
  outer loop
    vertex 1.4203133983779193 -0.924785669665402 8.921755705428971
    vertex 13.00042902867079 -0.9247699999890141 10.488785505921394
    vertex 1.6480719766803729 -0.9247872146638443 9.26262050616937
  endloop
endfacet
facet normal 3.8470668455751947e-07 -0.9999999999900606 -4.441953372904183e-06
  outer loop
    vertex 1.6480719766803729 -0.9247872146638443 9.26262050616937
    vertex 13.00042902867079 -0.9247699999890141 10.488785505921394
    vertex 1.918373833264296 -0.9247877326174347 9.570840701327876
  endloop
endfacet
facet normal 3.8470668455751947e-07 -0.9999999999900606 -4.441953372904183e-06
  outer loop
    vertex 1.918373833264296 -0.9247877326174347 9.570840701327876
    vertex 13.00042902867079 -0.9247699999890141 10.488785505921394
    vertex 2.226594028422803 -0.9247872146638443 9.8411425579118
  endloop
endfacet
facet normal 3.8470668455751947e-07 -0.9999999999900606 -4.441953372904183e-06
  outer loop
    vertex 2.226594028422803 -0.9247872146638443 9.8411425579118
    vertex 13.00042902867079 -0.9247699999890141 10.488785505921394
    vertex 2.5674588291631997 -0.924785669665402 10.068901136214254
  endloop
endfacet
facet normal 3.8470668455751947e-07 -0.9999999999900606 -4.441953372904183e-06
  outer loop
    vertex 2.5674588291631997 -0.924785669665402 10.068901136214254
    vertex 13.00042902867079 -0.9247699999890141 10.488785505921394
    vertex 2.935135944240624 -0.9247831240574599 10.250219423814798
  endloop
endfacet
facet normal 3.8470668455751947e-07 -0.9999999999900606 -4.441953372904183e-06
  outer loop
    vertex 2.935135944240624 -0.9247831240574599 10.250219423814798
    vertex 13.00042902867079 -0.9247699999890141 10.488785505921394
    vertex 3.323334316278239 -0.9247796213960754 10.381995014542401
  endloop
endfacet
facet normal 3.8470668455751947e-07 -0.9999999999900606 -4.441953372904183e-06
  outer loop
    vertex 3.323334316278239 -0.9247796213960754 10.381995014542401
    vertex 13.00042902867079 -0.9247699999890141 10.488785505921394
    vertex 3.7254117635031356 -0.9247752216127558 10.461973191505148
  endloop
endfacet
facet normal 3.8470668455751947e-07 -0.9999999999900606 -4.441953372904183e-06
  outer loop
    vertex 3.7254117635031356 -0.9247752216127558 10.461973191505148
    vertex 13.00042902867079 -0.9247699999890141 10.488785505921394
    vertex 4.134488629317999 -0.9247699999890141 10.488785505921395
  endloop
endfacet
facet normal 3.8470668455751947e-07 -0.9999999999900606 -4.441953372904183e-06
  outer loop
    vertex 6.840518601075839 -0.9247699999890141 4.072847716963104
    vertex 1.1303784755664021 -0.9247741089898426 4.444206338781103
    vertex 1.3131685040259 -0.9247763744561267 3.9873873622796876
  endloop
endfacet
facet normal 3.8470668455751947e-07 -0.9999999999900606 -4.441953372904183e-06
  outer loop
    vertex 1.1303784755664021 -0.9247741089898426 4.444206338781103
    vertex 6.840518601075839 -0.9247699999890141 4.072847716963104
    vertex 6.3335534258574615 -0.9247699999890141 4.197666388656278
  endloop
endfacet
facet normal 3.8470668455751947e-07 -0.9999999999900606 -4.441953372904183e-06
  outer loop
    vertex 1.1303784755664021 -0.9247741089898426 4.444206338781103
    vertex 6.3335534258574615 -0.9247699999890141 4.197666388656278
    vertex 5.876168119503455 -0.9247699999890141 4.449444209798065
  endloop
endfacet
facet normal 3.8470668455751947e-07 -0.9999999999900606 -4.441953372904183e-06
  outer loop
    vertex 1.1303784755664021 -0.9247741089898426 4.444206338781103
    vertex 5.876168119503455 -0.9247699999890141 4.449444209798065
    vertex 1.0004290286707784 -0.9247699999890141 4.918768150388184
  endloop
endfacet
facet normal 3.8470668455751947e-07 -0.9999999999900606 -4.441953372904183e-06
  outer loop
    vertex 1.0004290286707784 -0.9247699999890141 4.918768150388184
    vertex 5.876168119503455 -0.9247699999890141 4.449444209798065
    vertex 5.499532734776893 -0.9247699999890141 4.811022937960173
  endloop
endfacet
facet normal 3.8470668455751947e-07 -0.9999999999900606 -4.441953372904183e-06
  outer loop
    vertex 1.0004290286707784 -0.9247699999890141 4.918768150388184
    vertex 5.499532734776893 -0.9247699999890141 4.811022937960173
    vertex 5.229314350727489 -0.9247699999890141 5.257761580355458
  endloop
endfacet
facet normal 3.8470668455751947e-07 -0.9999999999900606 -4.441953372904183e-06
  outer loop
    vertex 1.0004290286707784 -0.9247699999890141 4.918768150388184
    vertex 5.229314350727489 -0.9247699999890141 5.257761580355458
    vertex 1.0004290286707784 -0.9247699999890141 7.354725905274172
  endloop
endfacet
facet normal 3.8470668455751947e-07 -0.9999999999900606 -4.441953372904183e-06
  outer loop
    vertex 1.0004290286707784 -0.9247699999890141 7.354725905274172
    vertex 5.229314350727489 -0.9247699999890141 5.257761580355458
    vertex 5.083927903671216 -0.9247699999890141 5.759215636775194
  endloop
endfacet
facet normal 3.8470668455751947e-07 -0.9999999999900606 -4.441953372904183e-06
  outer loop
    vertex 1.0004290286707784 -0.9247699999890141 7.354725905274172
    vertex 5.083927903671216 -0.9247699999890141 5.759215636775194
    vertex 5.073281239712494 -0.9247699999890141 6.281211841966384
  endloop
endfacet
facet normal 3.8470668455751947e-07 -0.9999999999900606 -4.441953372904183e-06
  outer loop
    vertex 1.0004290286707784 -0.9247699999890141 7.354725905274172
    vertex 5.073281239712494 -0.9247699999890141 6.281211841966384
    vertex 5.198099911405667 -0.9247699999890141 6.788177017184765
  endloop
endfacet
facet normal 3.8470668455751947e-07 -0.9999999999900606 -4.441953372904183e-06
  outer loop
    vertex 1.0004290286707784 -0.9247699999890141 7.354725905274172
    vertex 5.198099911405667 -0.9247699999890141 6.788177017184765
    vertex 5.449877732547455 -0.9247699999890141 7.245562323538772
  endloop
endfacet
facet normal 3.8470668455751947e-07 -0.9999999999900606 -4.441953372904183e-06
  outer loop
    vertex 1.0004290286707784 -0.9247699999890141 7.354725905274172
    vertex 5.449877732547455 -0.9247699999890141 7.245562323538772
    vertex 5.811456460709563 -0.9247699999890141 7.622197708265334
  endloop
endfacet
facet normal 3.8470668455751947e-07 -0.9999999999900606 -4.441953372904183e-06
  outer loop
    vertex 1.0004290286707784 -0.9247699999890141 7.354725905274172
    vertex 5.811456460709563 -0.9247699999890141 7.622197708265334
    vertex 1.0272413430870238 -0.924775221612756 7.763802771089035
  endloop
endfacet
facet normal 3.8470668455751947e-07 -0.9999999999900606 -4.441953372904183e-06
  outer loop
    vertex 1.0272413430870238 -0.924775221612756 7.763802771089035
    vertex 5.811456460709563 -0.9247699999890141 7.622197708265334
    vertex 6.258195103104848 -0.9247699999890141 7.892416092314739
  endloop
endfacet
facet normal 3.8470668455751947e-07 -0.9999999999900606 -4.441953372904183e-06
  outer loop
    vertex 1.0272413430870238 -0.924775221612756 7.763802771089035
    vertex 6.258195103104848 -0.9247699999890141 7.892416092314739
    vertex 1.1072195200497719 -0.9247796213960754 8.165880218313932
  endloop
endfacet
facet normal 3.8470668455751947e-07 -0.9999999999900606 -4.441953372904183e-06
  outer loop
    vertex 1.1072195200497719 -0.9247796213960754 8.165880218313932
    vertex 6.258195103104848 -0.9247699999890141 7.892416092314739
    vertex 6.759649159524578 -0.9247699999890141 8.037802539371013
  endloop
endfacet
facet normal 3.8470668455751947e-07 -0.9999999999900606 -4.441953372904183e-06
  outer loop
    vertex 1.1072195200497719 -0.9247796213960754 8.165880218313932
    vertex 6.759649159524578 -0.9247699999890141 8.037802539371013
    vertex 7.281645364715769 -0.9247699999890141 8.048449203329733
  endloop
endfacet
facet normal -0.9978589232269489 -1.6838192686112803e-06 0.06540312938628343
  outer loop
    vertex 1.0272197049505651 12.738810778352972 7.763824409225492
    vertex 1.0004290286707784 -0.9247699999890141 7.354725905274172
    vertex 1.0272413430870238 -0.924775221612756 7.763802771089035
  endloop
endfacet
facet normal -0.9978589232269489 -1.6838192686112803e-06 0.06540312938628343
  outer loop
    vertex 1.0004290286707784 -0.9247699999890141 7.354725905274172
    vertex 1.0272197049505651 12.738810778352972 7.763824409225492
    vertex 1.0004073905343196 12.738815999976715 7.354747543410629
  endloop
endfacet
facet normal -0.9807852803749629 -1.8621580560989172e-06 0.19509032214935174
  outer loop
    vertex 1.107197881913313 12.738806378569654 8.16590185645039
    vertex 1.0272413430870238 -0.924775221612756 7.763802771089035
    vertex 1.1072195200497719 -0.9247796213960754 8.165880218313932
  endloop
endfacet
facet normal -0.9807852803749629 -1.8621580560989172e-06 0.19509032214935174
  outer loop
    vertex 1.0272413430870238 -0.924775221612756 7.763802771089035
    vertex 1.107197881913313 12.738806378569654 8.16590185645039
    vertex 1.0272197049505651 12.738810778352972 7.763824409225492
  endloop
endfacet
facet normal -0.9469301294574275 -2.0086348029643533e-06 0.32143946540788193
  outer loop
    vertex 1.2389734726409145 12.73880287590827 8.554100228488004
    vertex 1.1072195200497719 -0.9247796213960754 8.165880218313932
    vertex 1.2389951107773731 -0.9247831240574599 8.554078590351548
  endloop
endfacet
facet normal -0.9469301294574275 -2.0086348029643533e-06 0.32143946540788193
  outer loop
    vertex 1.1072195200497719 -0.9247796213960754 8.165880218313932
    vertex 1.2389734726409145 12.73880287590827 8.554100228488004
    vertex 1.107197881913313 12.738806378569654 8.16590185645039
  endloop
endfacet
facet normal -0.8968727414941837 -2.1207432514626e-06 0.4422886902919967
  outer loop
    vertex 1.4202917602414604 12.738800330300325 8.921777343565429
    vertex 1.2389951107773731 -0.9247831240574599 8.554078590351548
    vertex 1.4203133983779193 -0.924785669665402 8.921755705428971
  endloop
endfacet
facet normal -0.8968727414941837 -2.1207432514626e-06 0.4422886902919967
  outer loop
    vertex 1.2389951107773731 -0.9247831240574599 8.554078590351548
    vertex 1.4202917602414604 12.738800330300325 8.921777343565429
    vertex 1.2389734726409145 12.73880287590827 8.554100228488004
  endloop
endfacet
facet normal -0.8314696122723463 -2.1965651949619457e-06 0.5555702330604559
  outer loop
    vertex 1.6480503385439156 12.738798785301885 9.262642144305826
    vertex 1.4203133983779193 -0.924785669665402 8.921755705428971
    vertex 1.6480719766803729 -0.9247872146638443 9.26262050616937
  endloop
endfacet
facet normal -0.8314696122723463 -2.1965651949619457e-06 0.5555702330604559
  outer loop
    vertex 1.4203133983779193 -0.924785669665402 8.921755705428971
    vertex 1.6480503385439156 12.738798785301885 9.262642144305826
    vertex 1.4202917602414604 12.738800330300325 8.921777343565429
  endloop
endfacet
facet normal -0.7518398074658079 -2.2348032989906576e-06 0.6593458151112985
  outer loop
    vertex 1.9183521951278386 12.738798267348292 9.570862339464334
    vertex 1.6480719766803729 -0.9247872146638443 9.26262050616937
    vertex 1.918373833264296 -0.9247877326174347 9.570840701327876
  endloop
endfacet
facet normal -0.7518398074658079 -2.2348032989906576e-06 0.6593458151112985
  outer loop
    vertex 1.6480719766803729 -0.9247872146638443 9.26262050616937
    vertex 1.9183521951278386 12.738798267348292 9.570862339464334
    vertex 1.6480503385439156 12.738798785301885 9.262642144305826
  endloop
endfacet
facet normal -0.6593458151112984 -2.234803298989e-06 0.751839807465808
  outer loop
    vertex 1.918373833264296 -0.9247877326174347 9.570840701327876
    vertex 2.226572390286346 12.738798785301885 9.841164196048256
    vertex 1.9183521951278386 12.738798267348292 9.570862339464334
  endloop
endfacet
facet normal -0.6593458151112984 -2.234803298989e-06 0.751839807465808
  outer loop
    vertex 2.226572390286346 12.738798785301885 9.841164196048256
    vertex 1.918373833264296 -0.9247877326174347 9.570840701327876
    vertex 2.226594028422803 -0.9247872146638443 9.8411425579118
  endloop
endfacet
facet normal -0.5555702330604579 -2.196565194957003e-06 0.831469612272345
  outer loop
    vertex 2.226594028422803 -0.9247872146638443 9.8411425579118
    vertex 2.5674371910267424 12.738800330300325 10.06892277435071
    vertex 2.226572390286346 12.738798785301885 9.841164196048256
  endloop
endfacet
facet normal -0.5555702330604579 -2.196565194957003e-06 0.831469612272345
  outer loop
    vertex 2.5674371910267424 12.738800330300325 10.06892277435071
    vertex 2.226594028422803 -0.9247872146638443 9.8411425579118
    vertex 2.5674588291631997 -0.924785669665402 10.068901136214254
  endloop
endfacet
facet normal -0.442288690291995 -2.1207432514544533e-06 0.8968727414941846
  outer loop
    vertex 2.5674588291631997 -0.924785669665402 10.068901136214254
    vertex 2.935114306104167 12.73880287590827 10.250241061951256
    vertex 2.5674371910267424 12.738800330300325 10.06892277435071
  endloop
endfacet
facet normal -0.442288690291995 -2.1207432514544533e-06 0.8968727414941846
  outer loop
    vertex 2.935114306104167 12.73880287590827 10.250241061951256
    vertex 2.5674588291631997 -0.924785669665402 10.068901136214254
    vertex 2.935135944240624 -0.9247831240574599 10.250219423814798
  endloop
endfacet
facet normal -0.321439465407884 -2.0086348029531483e-06 0.9469301294574269
  outer loop
    vertex 2.935135944240624 -0.9247831240574599 10.250219423814798
    vertex 3.32331267814178 12.738806378569654 10.382016652678859
    vertex 2.935114306104167 12.73880287590827 10.250241061951256
  endloop
endfacet
facet normal -0.321439465407884 -2.0086348029531483e-06 0.9469301294574269
  outer loop
    vertex 3.32331267814178 12.738806378569654 10.382016652678859
    vertex 2.935135944240624 -0.9247831240574599 10.250219423814798
    vertex 3.323334316278239 -0.9247796213960754 10.381995014542401
  endloop
endfacet
facet normal -0.1950903221493512 -1.8621580560848384e-06 0.9807852803749629
  outer loop
    vertex 3.323334316278239 -0.9247796213960754 10.381995014542401
    vertex 3.7253901253666766 12.738810778352972 10.461994829641606
    vertex 3.32331267814178 12.738806378569654 10.382016652678859
  endloop
endfacet
facet normal -0.1950903221493512 -1.8621580560848384e-06 0.9807852803749629
  outer loop
    vertex 3.7253901253666766 12.738810778352972 10.461994829641606
    vertex 3.323334316278239 -0.9247796213960754 10.381995014542401
    vertex 3.7254117635031356 -0.9247752216127558 10.461973191505148
  endloop
endfacet
facet normal -0.06540312938628513 -1.6838192685945753e-06 0.9978589232269487
  outer loop
    vertex 3.7254117635031356 -0.9247752216127558 10.461973191505148
    vertex 4.134466991181539 12.738815999976715 10.488807144057851
    vertex 3.7253901253666766 12.738810778352972 10.461994829641606
  endloop
endfacet
facet normal -0.06540312938628513 -1.6838192685945753e-06 0.9978589232269487
  outer loop
    vertex 4.134466991181539 12.738815999976715 10.488807144057851
    vertex 3.7254117635031356 -0.9247752216127558 10.461973191505148
    vertex 4.134488629317999 -0.9247699999890141 10.488785505921395
  endloop
endfacet
endsolid mast
